<?xml version="1.0" standalone="no"?>
<!DOCTYPE svg PUBLIC "-//W3C//DTD SVG 20010904//EN"
 "http://www.w3.org/TR/2001/REC-SVG-20010904/DTD/svg10.dtd">
<svg version="1.0" xmlns="http://www.w3.org/2000/svg"
 width="500.000000pt" height="500.000000pt" viewBox="0 0 500.000000 500.000000"
 preserveAspectRatio="xMidYMid meet">

<g transform="translate(0.000000,500.000000) scale(0.100000,-0.100000)"
fill="#000000" stroke="none">
<path d="M2476 3687 c-8 -159 -25 -246 -62 -318 -34 -68 -81 -129 -100 -129
-9 0 -13 -4 -10 -9 3 -5 -1 -15 -10 -22 -13 -10 -17 -10 -25 2 -5 8 -8 21 -7
29 0 8 -2 23 -6 32 -4 10 -14 88 -21 175 -7 95 -13 134 -14 98 -1 -33 -6 -100
-11 -150 -21 -200 -38 -252 -90 -277 -38 -18 -191 -38 -295 -38 -37 0 -65 -4
-65 -10 0 -6 31 -10 73 -10 81 0 237 -16 246 -26 11 -11 -83 -84 -154 -119
-38 -19 -94 -40 -124 -45 l-54 -10 -66 47 c-261 184 -395 358 -346 452 21 42
80 69 164 77 l70 7 6 -35 7 -35 36 19 c20 10 42 18 48 18 7 0 14 7 18 15 3 9
0 15 -8 15 -15 0 -26 21 -26 51 0 18 -2 19 -30 4 -16 -8 -36 -15 -45 -15 -9 0
-18 -6 -21 -14 -3 -8 -29 -16 -65 -20 -89 -9 -146 -37 -164 -80 -21 -50 -19
-65 17 -136 40 -81 152 -199 279 -295 l97 -73 -37 -6 c-20 -3 -69 -6 -108 -6
-127 0 -79 -17 70 -24 81 -4 153 -13 167 -20 197 -101 264 -142 292 -180 74
-99 102 -202 115 -410 l7 -131 12 150 c16 191 20 217 46 277 20 47 23 50 52
44 28 -4 29 -4 9 6 -13 6 -23 16 -23 23 0 6 24 38 54 71 39 42 57 56 65 48 12
-11 38 -170 30 -179 -3 -3 -25 2 -49 10 -24 8 -45 13 -47 11 -2 -2 18 -11 45
-20 28 -10 53 -24 56 -32 3 -9 7 -52 7 -97 1 -80 2 -81 9 -29 4 29 11 99 14
154 9 141 34 238 68 265 25 19 104 32 239 39 l134 7 56 -57 c119 -122 154
-224 96 -284 -32 -34 -96 -55 -148 -50 -29 2 -34 7 -37 31 -4 31 -9 32 -36 12
-11 -8 -30 -15 -43 -15 -14 0 -23 -6 -23 -15 0 -17 -6 -16 -174 21 -60 13
-111 22 -113 20 -5 -5 150 -42 234 -56 67 -11 72 -13 78 -41 7 -29 19 -37 29
-20 3 5 21 12 40 15 25 5 34 11 29 21 -4 12 4 15 33 16 55 0 123 29 148 62 27
36 26 98 -2 152 -22 44 -147 198 -165 204 -6 2 -44 30 -85 63 -40 32 -75 58
-78 58 -12 0 2 -13 66 -60 39 -29 70 -54 70 -57 0 -7 -213 6 -259 15 l-34 7
58 53 c32 29 62 51 68 49 6 -2 19 5 28 14 36 36 200 68 351 69 125 0 98 16
-41 23 -70 4 -152 12 -182 17 -177 34 -337 186 -383 364 -9 32 -20 123 -26
204 -6 81 -12 148 -14 149 -2 2 -6 -56 -10 -130z m-236 -496 c0 -18 -18 -41
-32 -41 -8 0 -1 45 9 63 7 12 23 -3 23 -22z m-40 -198 c66 -34 178 -143 203
-199 l18 -40 -60 -64 c-33 -35 -63 -72 -67 -83 -6 -18 -11 -19 -59 -2 -11 3
-7 -1 8 -10 30 -18 30 -22 -3 -100 -16 -39 -17 -39 -25 -15 -21 72 -81 169
-137 222 -54 53 -181 128 -214 128 -30 0 -12 19 32 34 61 21 129 65 179 115
21 23 46 41 54 41 9 0 41 -12 71 -27z m-230 -248 c22 -14 40 -28 40 -31 0 -6
-109 53 -125 68 -17 16 42 -10 85 -37z"/>
<path d="M2180 2620 c8 -5 20 -10 25 -10 6 0 3 5 -5 10 -8 5 -19 10 -25 10 -5
0 -3 -5 5 -10z"/>
<path d="M1713 3423 c9 -2 23 -2 30 0 6 3 -1 5 -18 5 -16 0 -22 -2 -12 -5z"/>
<path d="M1768 3413 c6 -2 18 -2 25 0 6 3 1 5 -13 5 -14 0 -19 -2 -12 -5z"/>
<path d="M1818 3403 c7 -3 16 -2 19 1 4 3 -2 6 -13 5 -11 0 -14 -3 -6 -6z"/>
<path d="M1905 3380 c33 -11 65 -19 70 -19 16 1 -57 26 -95 32 -19 4 -8 -2 25
-13z"/>
<path d="M2019 3345 c18 -8 38 -15 45 -15 6 1 -4 7 -23 15 -18 8 -38 15 -45
15 -6 -1 4 -7 23 -15z"/>
<path d="M2090 3322 c8 -5 26 -13 40 -16 17 -5 20 -4 10 2 -8 5 -26 13 -40 16
-17 5 -20 4 -10 -2z"/>
<path d="M1885 2240 c-25 -28 -13 -62 35 -94 22 -14 40 -30 40 -35 0 -14 -28
-21 -61 -14 -27 5 -31 3 -27 -13 5 -29 80 -32 108 -4 30 30 22 60 -25 91 -51
35 -52 54 -2 53 30 -1 37 2 37 17 0 28 -80 27 -105 -1z"/>
<path d="M2040 2160 c0 -93 1 -100 20 -100 17 0 20 7 20 45 l0 45 40 0 40 0 0
-45 c0 -38 3 -45 20 -45 19 0 20 7 20 100 0 93 -1 100 -20 100 -17 0 -20 -7
-20 -40 l0 -40 -40 0 -40 0 0 40 c0 33 -3 40 -20 40 -19 0 -20 -7 -20 -100z"/>
<path d="M2310 2156 c0 -99 1 -106 20 -106 17 0 20 7 20 40 0 38 2 40 30 40
56 0 89 61 56 105 -9 13 -30 20 -70 23 l-56 4 0 -106z m94 48 c8 -21 -11 -44
-35 -44 -14 0 -19 7 -19 30 0 25 4 30 24 30 13 0 27 -7 30 -16z"/>
<path d="M2502 2244 c-36 -25 -26 -63 26 -97 62 -42 51 -77 -18 -57 -29 8 -31
7 -28 -13 2 -18 10 -23 47 -25 52 -4 81 17 81 59 0 20 -8 34 -27 46 -53 32
-64 45 -52 59 6 8 22 11 39 8 16 -4 31 -1 35 6 18 30 -65 41 -103 14z"/>
<path d="M2770 2247 c-36 -18 -52 -55 -46 -107 5 -57 40 -90 96 -90 64 0 70 6
70 66 l0 54 -40 0 c-33 0 -40 -3 -40 -20 0 -14 7 -20 21 -20 15 0 20 -5 17
-22 -8 -56 -82 -14 -82 46 0 48 23 70 71 69 39 -1 61 15 40 29 -19 12 -79 9
-107 -5z"/>
<path d="M2973 2245 c-33 -23 -48 -79 -34 -126 14 -47 44 -69 93 -69 56 0 89
34 96 98 4 47 2 54 -26 82 -35 34 -92 41 -129 15z m95 -30 c11 -9 17 -65 10
-91 -10 -38 -42 -50 -75 -28 -33 21 -33 96 -1 118 18 13 51 14 66 1z"/>
</g>
</svg>
