<?xml version="1.0" standalone="no"?>
<!DOCTYPE svg PUBLIC "-//W3C//DTD SVG 20010904//EN"
 "http://www.w3.org/TR/2001/REC-SVG-20010904/DTD/svg10.dtd">
<svg version="1.0" xmlns="http://www.w3.org/2000/svg"
 width="500.000000pt" height="500.000000pt" viewBox="0 0 500.000000 500.000000"
 preserveAspectRatio="xMidYMid meet">

<g transform="translate(0.000000,500.000000) scale(0.100000,-0.100000)"
fill="#000000" stroke="none">
<path d="M2767 4228 c-9 -250 -33 -496 -57 -597 -35 -144 -131 -322 -218 -405
l-31 -29 -56 23 c-30 12 -58 26 -60 31 -11 17 -37 313 -49 553 l-12 251 -7
-200 c-7 -191 -34 -545 -42 -553 -2 -2 -91 28 -197 66 -259 95 -511 162 -769
206 -42 7 -59 35 -59 96 0 22 -2 40 -5 40 -3 0 -22 -11 -43 -25 -21 -13 -62
-29 -91 -35 -64 -12 -68 -15 -52 -34 10 -12 2 -15 -56 -21 -192 -17 -274 -45
-337 -115 -48 -53 -62 -108 -47 -185 39 -195 271 -453 650 -724 l110 -79 -42
-6 c-61 -9 -355 -26 -477 -27 -86 -1 -97 -3 -60 -10 25 -4 81 -8 125 -8 112
-2 499 -29 562 -41 34 -6 100 -37 200 -93 81 -47 189 -105 239 -130 68 -34
103 -59 136 -97 93 -106 172 -269 203 -414 20 -97 43 -360 54 -616 4 -107 9
-159 10 -115 2 134 20 411 37 574 16 162 36 243 86 352 l30 67 151 -53 c180
-63 163 -30 174 -320 8 -227 16 -208 27 65 4 96 9 176 11 179 2 2 55 -10 117
-27 133 -37 335 -78 430 -87 63 -7 67 -9 77 -38 6 -16 11 -48 11 -70 l0 -40
23 20 c37 34 84 53 132 53 50 0 51 1 30 34 l-15 22 83 12 c195 25 289 90 312
212 20 109 -83 298 -260 474 l-75 76 47 1 c27 0 68 4 93 8 37 7 26 9 -60 10
l-105 1 -85 71 c-47 39 -122 98 -167 131 -46 32 -83 62 -83 64 0 8 101 50 175
73 94 29 231 48 460 61 439 27 426 25 191 33 -239 9 -482 30 -582 51 -364 77
-651 376 -718 748 -18 100 -34 279 -45 526 -5 101 -11 185 -13 188 -3 2 -8
-78 -11 -178z m-1711 -669 c4 -7 10 -36 13 -65 l6 -54 48 32 c35 23 64 33 103
36 53 4 54 5 38 23 -16 18 -16 19 10 19 47 0 344 -68 485 -110 138 -42 412
-139 451 -160 25 -13 23 -36 -11 -144 -29 -92 -61 -150 -90 -163 -76 -36 -346
-68 -685 -80 -235 -8 -239 -8 191 -33 192 -11 382 -33 394 -46 11 -12 -137
-139 -217 -188 -104 -62 -255 -114 -353 -122 l-74 -5 -120 87 c-418 303 -645
568 -648 754 0 66 19 107 70 149 36 30 128 66 188 74 70 9 194 7 201 -4z
m1344 -359 c22 -11 40 -22 40 -23 0 -2 -13 -16 -30 -32 l-29 -28 -9 24 c-14
38 -23 79 -17 79 3 0 24 -9 45 -20z m-92 -132 c-41 -27 -70 -39 -66 -26 2 7
12 42 23 77 l19 63 18 -53 c14 -41 15 -55 6 -61z m-147 -298 c182 -72 369
-241 462 -418 l35 -65 -97 -96 c-53 -53 -112 -122 -131 -153 -19 -31 -41 -57
-47 -58 -7 0 -73 26 -147 58 -123 54 -139 64 -192 121 -106 114 -249 208 -392
258 -45 15 -82 31 -82 34 0 3 25 13 55 23 142 44 320 157 412 261 26 30 53 54
60 54 7 1 36 -8 64 -19z m1205 -117 c82 -58 220 -168 228 -181 5 -9 -74 -6
-254 8 -164 14 -290 31 -290 40 0 20 207 190 231 190 3 0 42 -25 85 -57z m347
-285 c292 -289 351 -525 155 -624 -53 -27 -173 -54 -238 -54 l-39 0 -12 60
c-11 58 -21 72 -35 49 -12 -20 -89 -49 -132 -49 l-42 0 16 -26 17 -25 -54 7
c-148 18 -511 103 -533 124 -10 10 9 209 29 295 7 33 29 96 47 140 l33 80 67
22 c87 29 173 42 387 58 283 20 249 26 334 -57z m-2007 -47 c74 -35 204 -116
204 -128 0 -2 -34 14 -75 36 -41 23 -109 59 -150 82 -69 37 -85 49 -69 49 3 0
44 -18 90 -39z m1018 -265 c20 -112 29 -206 19 -206 -21 -1 -283 95 -283 103
0 20 91 135 155 197 l68 65 13 -39 c8 -21 20 -75 28 -120z m-465 -51 c58 -25
107 -47 109 -49 3 -4 -20 -67 -77 -210 -6 -15 -14 -1 -35 60 -26 74 -73 169
-113 231 -15 22 -15 26 -3 21 8 -4 62 -27 119 -53z"/>
<path d="M1671 1346 c-52 -29 -67 -106 -28 -151 12 -14 44 -38 71 -53 59 -32
76 -54 60 -79 -15 -24 -56 -27 -111 -9 -26 9 -48 16 -50 16 -2 0 -3 -16 -3
-35 0 -44 23 -55 112 -55 90 0 138 37 138 105 0 54 -16 71 -127 136 -35 20
-43 49 -18 69 14 12 34 11 98 -5 21 -6 26 -2 35 24 10 28 9 30 -20 40 -42 15
-128 13 -157 -3z"/>
<path d="M1930 1170 l0 -190 40 0 40 0 0 80 0 80 75 0 75 0 0 -80 0 -80 40 0
40 0 0 190 0 190 -40 0 -40 0 0 -75 0 -75 -75 0 -75 0 0 75 0 75 -40 0 -40 0
0 -190z"/>
<path d="M2840 1349 c-49 -20 -70 -49 -70 -98 0 -54 26 -89 93 -122 81 -41 95
-67 51 -95 -23 -16 -29 -16 -84 0 -33 9 -62 16 -65 16 -3 0 -5 -16 -5 -35 0
-43 25 -56 112 -56 99 -1 153 47 144 125 -5 47 -22 64 -101 108 -33 19 -61 42
-63 51 -8 42 44 60 105 36 23 -8 30 -7 40 7 24 34 16 51 -31 63 -54 13 -92 13
-126 0z"/>
<path d="M3348 1350 c-79 -24 -127 -95 -128 -190 0 -98 27 -152 94 -187 34
-18 157 -20 199 -4 27 10 27 11 27 111 l0 100 -81 0 -80 0 3 -32 c3 -30 6 -33
41 -36 36 -3 37 -4 37 -42 0 -35 -3 -39 -30 -45 -48 -11 -102 21 -118 70 -40
120 45 219 161 188 36 -10 39 -9 52 18 8 15 15 30 15 32 0 3 -20 10 -44 16
-51 13 -108 13 -148 1z"/>
<path d="M3710 1338 c-33 -17 -51 -35 -67 -68 -46 -91 -22 -232 49 -283 52
-39 174 -39 226 -1 71 52 96 196 49 284 -45 85 -162 116 -257 68z m161 -77
c26 -27 29 -36 29 -96 0 -81 -19 -123 -60 -132 -82 -16 -125 15 -130 97 -6 77
0 101 29 131 41 40 91 40 132 0z"/>
<path d="M2440 1156 l0 -196 45 0 45 0 0 70 0 70 35 0 c51 0 109 27 128 59 9
16 17 50 17 75 0 36 -6 52 -29 78 -29 33 -30 33 -135 36 l-106 4 0 -196z m178
112 c6 -6 12 -23 12 -39 0 -33 -32 -59 -72 -59 -28 0 -28 1 -28 61 l0 61 38
-7 c20 -4 43 -11 50 -17z"/>
</g>
</svg>
