<?xml version="1.0" standalone="no"?>
<!DOCTYPE svg PUBLIC "-//W3C//DTD SVG 20010904//EN"
 "http://www.w3.org/TR/2001/REC-SVG-20010904/DTD/svg10.dtd">
<svg version="1.0" xmlns="http://www.w3.org/2000/svg"
 width="500.000000pt" height="500.000000pt" viewBox="0 0 500.000000 500.000000"
 preserveAspectRatio="xMidYMid meet">

<g transform="translate(0.000000,500.000000) scale(0.100000,-0.100000)"
fill="#000000" stroke="none">
<path d="M2768 4220 c-10 -248 -35 -507 -59 -597 -41 -161 -125 -304 -254
-434 l-77 -77 39 -83 c47 -99 139 -226 211 -291 96 -85 238 -168 354 -203 l56
-18 75 69 c145 133 326 218 532 248 55 8 186 20 290 26 105 7 235 15 290 19
l100 8 -100 2 c-316 4 -639 39 -770 82 -272 90 -493 312 -585 587 -38 114 -56
244 -70 512 -18 326 -24 357 -32 150z"/>
<path d="M2268 3047 c-25 -15 -44 -37 -60 -71 -13 -27 -44 -80 -69 -116 l-46
-67 55 -18 c182 -62 388 -248 482 -436 l30 -58 52 35 c64 42 155 86 226 109
28 10 52 21 52 25 0 4 -18 12 -40 19 -83 25 -256 121 -330 183 -100 85 -200
211 -256 325 -26 51 -49 93 -53 92 -3 -1 -23 -11 -43 -22z"/>
<path d="M2100 2969 c-85 -34 -358 -65 -669 -76 -232 -8 -245 -6 194 -33 105
-6 237 -18 294 -26 58 -9 106 -12 110 -7 26 38 89 130 95 141 8 14 9 14 -24 1z"/>
<path d="M2870 2324 c-50 -23 -180 -102 -180 -110 0 -1 9 -40 20 -86 25 -101
48 -332 57 -571 3 -97 8 -175 10 -173 2 2 8 86 14 187 22 420 46 576 108 714
17 36 29 65 28 64 -1 0 -27 -11 -57 -25z"/>
<path d="M1671 1346 c-52 -29 -67 -106 -28 -151 12 -14 44 -38 71 -53 59 -32
76 -54 60 -79 -15 -24 -61 -27 -112 -10 l-42 15 0 -39 c0 -36 2 -38 35 -45 20
-3 61 -4 92 -2 48 4 61 10 85 37 55 61 31 126 -66 179 -59 32 -76 55 -60 80
12 18 58 22 104 8 22 -6 27 -3 37 23 10 28 9 30 -20 40 -41 15 -127 13 -156
-3z"/>
<path d="M1930 1170 l0 -190 40 0 39 0 3 83 3 82 73 3 72 3 0 -86 0 -85 40 0
40 0 0 190 0 190 -40 0 -40 0 0 -75 0 -75 -75 0 -75 0 0 75 0 75 -40 0 -40 0
0 -190z"/>
<path d="M2834 1346 c-42 -18 -64 -52 -64 -97 0 -47 36 -91 99 -124 58 -29 75
-48 66 -74 -9 -29 -60 -36 -115 -17 -60 21 -60 21 -60 -19 0 -44 23 -55 111
-55 71 0 113 19 134 60 34 65 9 115 -85 169 -36 20 -66 45 -68 54 -8 42 44 60
105 36 23 -8 30 -7 40 7 24 34 16 51 -31 63 -58 14 -94 13 -132 -3z"/>
<path d="M3350 1348 c-85 -24 -129 -90 -130 -193 0 -75 30 -140 80 -173 32
-22 44 -23 125 -20 50 2 96 7 103 11 8 6 12 39 12 108 l0 99 -75 0 -75 0 0
-35 c0 -33 2 -35 35 -35 34 0 35 -1 35 -40 0 -34 -4 -41 -25 -46 -63 -16 -120
28 -130 99 -18 119 73 198 180 157 24 -9 27 -7 40 23 l14 32 -37 12 c-45 14
-105 15 -152 1z"/>
<path d="M3733 1349 c-17 -5 -45 -23 -62 -40 -78 -77 -65 -260 22 -323 42 -31
183 -30 224 0 42 31 64 77 70 144 16 168 -96 265 -254 219z m138 -88 c29 -30
35 -56 30 -130 -6 -83 -65 -126 -134 -97 -40 16 -52 34 -62 92 -21 127 86 214
166 135z"/>
<path d="M2440 1156 l0 -196 40 0 40 0 0 70 0 70 33 0 c98 0 157 49 157 131 0
40 -5 55 -29 81 -29 33 -30 33 -135 36 l-106 4 0 -196z m176 113 c8 -6 14 -23
14 -37 0 -39 -27 -62 -72 -62 l-38 0 0 53 c0 30 3 57 8 61 9 10 70 0 88 -15z"/>
</g>
</svg>
